<svg width="48" height="48" viewBox="0 0 48 48" fill="none" xmlns="http://www.w3.org/2000/svg">
  <path
    d="M23.9999 0.230103C19.2888 0.230103 14.6834 1.62712 10.7662 4.2445C6.84908 6.86187 3.79601 10.582 1.99313 14.9345C0.190253 19.2871 -0.281463 24.0765 0.637637 28.6971C1.55674 33.3177 3.82537 37.562 7.15666 40.8933C10.4879 44.2246 14.7322 46.4933 19.3529 47.4124C23.9735 48.3316 28.7629 47.8597 33.1154 46.0569C37.468 44.2541 41.1881 41.201 43.8055 37.2837C46.4229 33.3666 47.8199 28.7612 47.8199 24.0501C47.8136 17.7345 45.3019 11.6795 40.8362 7.21384C36.3704 2.7481 30.3154 0.236456 23.9999 0.230103ZM23.9999 44.8701C19.8821 44.8701 15.8568 43.649 12.4329 41.3613C9.00914 39.0735 6.34059 35.8219 4.76477 32.0175C3.18896 28.2132 2.77665 24.027 3.57999 19.9883C4.38334 15.9496 6.36625 12.2398 9.27798 9.32814C12.1897 6.41641 15.8994 4.4335 19.9381 3.63015C23.9768 2.82681 28.163 3.23912 31.9674 4.81493C35.7717 6.39075 39.0234 9.0593 41.3111 12.4831C43.5988 15.9069 44.8199 19.9322 44.8199 24.0501C44.8136 29.5699 42.618 34.8619 38.7149 38.765C34.8117 42.6681 29.5198 44.8637 23.9999 44.8701Z"
    fill="black" />
</svg>