<svg width="48" height="32" viewBox="0 0 48 32" fill="none" xmlns="http://www.w3.org/2000/svg">
  <path
    d="M45.3842 1.84996C44.8686 1.55644 44.2854 1.40209 43.6922 1.40209C43.0989 1.40209 42.5157 1.55644 42.0002 1.84996L34.8002 6.04996V5.13796C34.8002 3.78537 34.2629 2.48815 33.3065 1.53172C32.3499 0.575294 31.0527 0.0379639 29.7002 0.0379639H6.00015C4.64754 0.0379639 3.35034 0.575294 2.39389 1.53172C1.43747 2.48815 0.900146 3.78537 0.900146 5.13796V26.3899C0.900146 27.0597 1.03206 27.723 1.28836 28.3417C1.54465 28.9605 1.92033 29.5227 2.39389 29.9962C2.86747 30.4698 3.4297 30.8455 4.04845 31.1017C4.66722 31.3581 5.3304 31.4899 6.00015 31.4899H29.6762C30.3479 31.4932 31.0137 31.3636 31.6352 31.1086C32.2568 30.8538 32.8218 30.4786 33.2979 30.0048C33.774 29.5309 34.1519 28.9675 34.4097 28.3473C34.6674 27.7269 34.8002 27.0618 34.8002 26.3899V25.4779L42.0002 29.6299C42.5219 29.931 43.1139 30.0883 43.7162 30.0859C44.3148 30.0897 44.9034 29.9322 45.4202 29.6299C45.944 29.3332 46.3791 28.9021 46.6808 28.3812C46.9824 27.8601 47.1396 27.268 47.1362 26.6659V4.86196C47.1447 4.24822 46.9863 3.64371 46.6776 3.11314C46.3691 2.58256 45.9219 2.14593 45.3842 1.84996ZM31.7762 7.7299V26.3899C31.7762 26.9469 31.5549 27.481 31.161 27.8749C30.7673 28.2687 30.2331 28.4899 29.6762 28.4899H6.00015C5.44318 28.4899 4.90905 28.2687 4.51522 27.8749C4.1214 27.481 3.90015 26.9469 3.90015 26.3899V5.13796C3.90331 4.5831 4.12596 4.05204 4.51945 3.66079C4.91293 3.26956 5.44527 3.04996 6.00015 3.04996H29.6762C30.2331 3.04996 30.7673 3.27121 31.161 3.66504C31.5549 4.05886 31.7762 4.59301 31.7762 5.14996V7.7299ZM44.1002 26.6659C44.1015 26.7402 44.082 26.8134 44.0438 26.877C44.0057 26.9406 43.9503 26.9923 43.8842 27.0259C43.8224 27.0682 43.7492 27.0909 43.6742 27.0909C43.5992 27.0909 43.526 27.0682 43.4642 27.0259L34.8002 22.0099V9.5179L43.4882 4.50196C43.55 4.45966 43.6232 4.43703 43.6982 4.43703C43.7732 4.43703 43.8464 4.45966 43.9082 4.50196C43.9743 4.5357 44.0297 4.58734 44.0678 4.65099C44.106 4.71465 44.1255 4.78774 44.1242 4.86196L44.1002 26.6659Z"
    fill="#1D1C1D" />
</svg>