<svg width="48" height="41" viewBox="0 0 48 41" fill="none" xmlns="http://www.w3.org/2000/svg">
  <path
    d="M42.0001 8.34595H29.9161V5.15395C29.9161 3.80134 29.3788 2.50414 28.4224 1.5477C27.4659 0.59127 26.1687 0.0539551 24.8162 0.0539551H6.00015C4.64851 0.0571201 3.35314 0.595455 2.3974 1.55121C1.44165 2.50695 0.903314 3.80232 0.900146 5.15395V21.0779C0.900146 22.4306 1.43747 23.7278 2.39389 24.6842C3.35034 25.6406 4.64754 26.1779 6.00015 26.1779H7.92015V30.3059C7.91979 30.5924 8.0008 30.873 8.15376 31.1153C8.30673 31.3574 8.52534 31.5512 8.78415 31.6739C9.0462 31.7889 9.33483 31.8296 9.61843 31.7915C9.90204 31.7534 10.1697 31.638 10.3921 31.4579L16.7041 26.1779H18.0842V29.3579C18.0842 30.7137 18.6228 32.0139 19.5815 32.9727C20.5401 33.9314 21.8403 34.4699 23.1961 34.4699H31.2962L37.6082 39.7619C37.8824 39.9866 38.2257 40.1096 38.5802 40.1099C38.8002 40.1096 39.0174 40.0604 39.2161 39.9659C39.4731 39.8441 39.6905 39.6522 39.8433 39.4122C39.9962 39.1724 40.0782 38.8943 40.0802 38.6099V34.4699H42.0001C43.3527 34.4699 44.6499 33.9326 45.6065 32.9762C46.5629 32.0198 47.1002 30.7226 47.1002 29.3699V13.4459C47.097 12.0944 46.5586 10.799 45.6028 9.84321C44.6472 8.88745 43.3518 8.34912 42.0001 8.34595ZM16.1521 23.1779C15.8024 23.1839 15.4646 23.3063 15.1922 23.5259L10.9201 27.1259V24.7259C10.9201 24.3281 10.7621 23.9466 10.4808 23.6652C10.1995 23.384 9.81796 23.2259 9.42015 23.2259H6.00015C5.44318 23.2259 4.90905 23.0046 4.51522 22.6109C4.1214 22.217 3.90015 21.6828 3.90015 21.1259V5.15395C3.9033 4.59796 4.12555 4.06566 4.5187 3.67251C4.91185 3.27936 5.44416 3.0571 6.00015 3.05395H24.8162C25.3731 3.05395 25.9073 3.2752 26.301 3.66903C26.6949 4.06285 26.9161 4.59699 26.9161 5.15395V21.0659C26.9161 21.3432 26.8616 21.6179 26.7554 21.8742C26.6493 22.1304 26.4936 22.3632 26.2976 22.5593C26.1015 22.7555 25.8685 22.911 25.6124 23.0172C25.3561 23.1233 25.0815 23.1779 24.8041 23.1779H16.1521ZM44.1002 29.3699C44.1002 29.9268 43.8789 30.461 43.485 30.8549C43.0913 31.2486 42.5571 31.4699 42.0001 31.4699H38.5802C38.1824 31.4699 37.8008 31.628 37.5195 31.9092C37.2383 32.1906 37.0802 32.5721 37.0802 32.9699V35.3699L32.8082 31.7699C32.5409 31.5399 32.2006 31.4124 31.8481 31.4099H23.1961C22.636 31.4099 22.0988 31.1874 21.7028 30.7913C21.3066 30.3953 21.0842 29.8581 21.0842 29.2979V26.1779H24.8162C26.1687 26.1779 27.4659 25.6406 28.4224 24.6842C29.3788 23.7278 29.9161 22.4306 29.9161 21.0779V11.3579H42.0001C42.5562 11.361 43.0884 11.5833 43.4815 11.9765C43.8747 12.3696 44.097 12.902 44.1002 13.4579V29.3699Z"
    fill="#1D1C1D" />
</svg>